# xmcd
#
# Track frame offsets:
#	150
#	15281
#	31420
#	49079
#	69878
#	89273
#	108314
#	130020
#	145239
#	167003
#	182977
#	201374
#	218700
#	243340
#
# Disc length: 3489 seconds
#
# Revision: 2
# Processed by: cddbd v1.5.2PL0 Copyright (c) Steve Scherf et al.
# Submitted via: EasyCDDAExtractor 2010.4.0.0
#
DISCID=ba0d9f0e
DTITLE=Various Artist - 7 Divo
DYEAR=1900
DGENRE=Blues
TTITLE0=CALORIES BLAH BLAH - อยากรู้...แต่ไม่อยากถาม
TTITLE1=กบ ทรงสิทธิ์ - เติมไม่เต็ม
TTITLE2=อ๊อฟ ปองศักดิ์ - ไม่รู้จะปลอบเธอ...ในฐานะอะไร
TTITLE3=ก้อง สหรัถ - รักเธอสุดหัวใจ
TTITLE4=ว่าน ธนกฤต - คนไม่มีเวลา
TTITLE5=บอย โกสิยพงษ์ - รักคุณเข้าแล้ว
TTITLE6=เบน ชลาทิศ - โอ๊ย โอ๊ย
TTITLE7=ก้อง สหรัถ - เติมใจให้กัน
TTITLE8=บอย โกสิยพงษ์ - ห่างไกลกันเหลือเกิน
TTITLE9=อ๊อฟ ปองศักดิ์ - จุดอ่อนของฉันอยู่ตรงที่หัวใจ
TTITLE10=กบ ทรงสิทธิ์ - ปาฏิหารย์
TTITLE11=CALORIES BLAH BLAH - ฤดูอกหัก
TTITLE12=บอย โกสิยพงษ์ - คนข้างล่าง
TTITLE13=ว่าน ธนกฤต - อยู่บำรุง
EXTD=
EXTT0=
EXTT1=
EXTT2=
EXTT3=
EXTT4=
EXTT5=
EXTT6=
EXTT7=
EXTT8=
EXTT9=
EXTT10=
EXTT11=
EXTT12=
EXTT13=
PLAYORDER=
